M48
;GenerationSoftware,Autodesk,EAGLE,9.6.1*%
;CreationDate,2022-03-29T13:34:53Z*%
FMAT,2
ICI,OFF
METRIC,TZ,000.000
T6C0.900
T5C2.500
T4C2.600
T3C3.000
T2C3.175
T1C4.300
%
G90
M71
T1
X-3500Y-23500
X3500Y-23500
X-3500Y23500
X3500Y23500
T2
X19000Y-24500
X-39000Y24500
X19000Y24500
X-39000Y-24500
T3
X-35000Y10000
X-15000Y10000
X-15000Y-10000
X-35000Y-10000
X35000Y-10000
X15000Y-10000
X15000Y10000
X35000Y10000
T4
X-22500Y-17500
X-27500Y-17500
X-18500Y-17500
X-14500Y-17500
X-31500Y-17500
X-35500Y-17500
X-22500Y17500
X-18500Y17500
X-14500Y17500
X-27500Y17500
X-31500Y17500
X-35500Y17500
X22500Y17500
X27500Y17500
X18500Y17500
X14500Y17500
X31500Y17500
X35500Y17500
X22500Y-17500
X18500Y-17500
X14500Y-17500
X27500Y-17500
X31500Y-17500
X35500Y-17500
T5
X3000Y-5000
X3000Y5000
X-3000Y-5000
X-3000Y5000
T6
X8000Y-9000
X-8000Y-9000
X-22225Y-24130
X-24765Y-24130
M30