G04 EAGLE Gerber RS-274X export*
G75*
%MOMM*%
%FSLAX34Y34*%
%LPD*%
%INBottom Copper*%
%IPPOS*%
%AMOC8*
5,1,8,0,0,1.08239X$1,22.5*%
G01*
%ADD10C,1.295400*%
%ADD11C,1.117600*%
%ADD12C,2.032000*%
%ADD13C,1.117600*%


D10*
X-368300Y157600D03*
X-368300Y172600D03*
X-368300Y142600D03*
X-368300Y187600D03*
X-368300Y75050D03*
X-368300Y90050D03*
X-368300Y60050D03*
X-368300Y105050D03*
X-368300Y-7500D03*
X-368300Y7500D03*
X-368300Y-22500D03*
X-368300Y22500D03*
X-368300Y-90050D03*
X-368300Y-75050D03*
X-368300Y-105050D03*
X-368300Y-60050D03*
X-368300Y-172600D03*
X-368300Y-157600D03*
X-368300Y-187600D03*
X-368300Y-142600D03*
D11*
X-38100Y88900D03*
X-25400Y88900D03*
X-12700Y88900D03*
X0Y88900D03*
X88900Y-25400D03*
X88900Y-12700D03*
X88900Y0D03*
X-88900Y-38100D03*
X-38100Y-88900D03*
X-12700Y-88900D03*
X0Y-88900D03*
D12*
X-215900Y31750D03*
X-190500Y31750D03*
X-241300Y31750D03*
X-165100Y31750D03*
D13*
X-368300Y187600D02*
X-371200Y190500D01*
X-393700Y190500D01*
X-393700Y105050D01*
X-393700Y22500D01*
X-393700Y-60050D01*
X-393700Y-142600D01*
X-368300Y-142600D01*
X-368300Y-60050D02*
X-393700Y-60050D01*
X-393700Y22500D02*
X-368300Y22500D01*
X-368300Y105050D02*
X-393700Y105050D01*
X-368300Y187600D02*
X-365400Y190500D01*
X-371200Y190500D01*
D12*
X-279400Y171450D03*
D13*
X-317500Y171450D01*
X-336550Y190500D01*
X-365400Y190500D01*
X-336550Y88900D02*
X-317500Y69850D01*
X-336550Y88900D02*
X-368300Y88900D01*
X-368300Y90050D01*
D12*
X-317500Y69850D03*
D13*
X-336550Y171450D02*
X-368300Y171450D01*
X-336550Y171450D02*
X-317500Y152400D01*
X-368300Y171450D02*
X-368300Y172600D01*
D12*
X-317500Y152400D03*
D13*
X-336550Y6350D02*
X-368300Y6350D01*
X-336550Y6350D02*
X-317500Y-12700D01*
X-368300Y6350D02*
X-368300Y7500D01*
D12*
X-317500Y-12700D03*
D13*
X-368300Y-75050D02*
X-368300Y-76200D01*
X-336550Y-76200D02*
X-317500Y-95250D01*
X-336550Y-76200D02*
X-368300Y-76200D01*
D12*
X-317500Y-95250D03*
D13*
X-368300Y-157600D02*
X-368300Y-158750D01*
X-336550Y-158750D01*
X-317500Y-177800D01*
D12*
X-317500Y-177800D03*
X-254000Y146050D03*
D13*
X-241300Y44450D02*
X-241300Y31750D01*
X-241300Y44450D02*
X-247650Y50800D01*
X-247650Y114300D01*
X-247650Y127000D01*
X-247650Y139700D01*
X-254000Y146050D01*
X-247650Y127000D02*
X-260350Y127000D01*
X-292100Y127000D01*
X-317500Y152400D01*
X-260350Y127000D02*
X-247650Y114300D01*
X-348100Y75050D02*
X-368300Y75050D01*
X-348100Y75050D02*
X-342900Y69850D01*
D12*
X-342900Y69850D03*
D13*
X-348100Y157600D02*
X-368300Y157600D01*
D12*
X-342900Y152400D03*
D13*
X-348100Y-7500D02*
X-368300Y-7500D01*
X-348100Y-7500D02*
X-342900Y-12700D01*
D12*
X-342900Y-12700D03*
D13*
X-348100Y-90050D02*
X-368300Y-90050D01*
X-348100Y-90050D02*
X-342900Y-95250D01*
D12*
X-342900Y-95250D03*
D13*
X-348100Y-172600D02*
X-368300Y-172600D01*
X-348100Y-172600D02*
X-342900Y-177800D01*
D12*
X-342900Y-177800D03*
X-228600Y146050D03*
D13*
X-342900Y152400D02*
X-348100Y157600D01*
X-215900Y31750D02*
X-234950Y12700D01*
X-247650Y12700D02*
X-260350Y25400D01*
X-247650Y12700D02*
X-234950Y12700D01*
X-215900Y31750D02*
X-215900Y38100D01*
X-234950Y57150D01*
X-234950Y139700D02*
X-228600Y146050D01*
X-234950Y139700D02*
X-234950Y57150D01*
X-266700Y114300D02*
X-304800Y114300D01*
X-260350Y107950D02*
X-260350Y25400D01*
X-304800Y114300D02*
X-342900Y152400D01*
X-266700Y114300D02*
X-260350Y107950D01*
D12*
X-177800Y146050D03*
D13*
X-25400Y-88900D02*
X-12700Y-88900D01*
D12*
X-279400Y146050D03*
D13*
X-38100Y-88900D02*
X-25400Y-88900D01*
X-279400Y146050D02*
X-260350Y165100D01*
X-222250Y165100D01*
X-209550Y152400D01*
X-222250Y127000D02*
X-222250Y63500D01*
X-222250Y127000D02*
X-209550Y139700D01*
X-209550Y152400D01*
X-222250Y63500D02*
X-190500Y31750D01*
X-25400Y-38100D02*
X-25400Y-88900D01*
X-171450Y12700D02*
X-190500Y31750D01*
X-171450Y12700D02*
X-76200Y12700D01*
X-25400Y-38100D01*
D12*
X-203200Y171450D03*
D13*
X-12700Y107950D02*
X-12700Y88900D01*
X-95250Y190500D02*
X-184150Y190500D01*
X-203200Y171450D01*
X-95250Y190500D02*
X-12700Y107950D01*
D12*
X-177800Y171450D03*
D13*
X-25400Y101600D02*
X-25400Y88900D01*
X-101600Y177800D02*
X-171450Y177800D01*
X-177800Y171450D01*
X-101600Y177800D02*
X-25400Y101600D01*
M02*
