G04 EAGLE Gerber RS-274X export*
G75*
%MOMM*%
%FSLAX34Y34*%
%LPD*%
%IN*%
%IPPOS*%
%AMOC8*
5,1,8,0,0,1.08239X$1,22.5*%
G01*
%ADD10C,0.254000*%


D10*
X-425000Y-250000D02*
X-424886Y-252615D01*
X-424544Y-255209D01*
X-423978Y-257765D01*
X-423191Y-260261D01*
X-422189Y-262679D01*
X-420981Y-265000D01*
X-419575Y-267207D01*
X-417981Y-269284D01*
X-416213Y-271213D01*
X-414284Y-272981D01*
X-412207Y-274575D01*
X-410000Y-275981D01*
X-407679Y-277189D01*
X-405261Y-278191D01*
X-402765Y-278978D01*
X-400209Y-279544D01*
X-397615Y-279886D01*
X-395000Y-280000D01*
X195000Y-280000D01*
X197615Y-279886D01*
X200210Y-279544D01*
X202765Y-278978D01*
X205261Y-278191D01*
X207679Y-277189D01*
X210000Y-275981D01*
X212207Y-274574D01*
X214284Y-272981D01*
X216213Y-271213D01*
X217981Y-269283D01*
X219575Y-267207D01*
X220981Y-265000D01*
X222189Y-262678D01*
X223191Y-260260D01*
X223978Y-257764D01*
X224544Y-255209D01*
X224886Y-252614D01*
X225000Y-249999D01*
X225000Y249999D01*
X224886Y252614D01*
X224544Y255209D01*
X223978Y257764D01*
X223191Y260260D01*
X222189Y262678D01*
X220981Y265000D01*
X219575Y267207D01*
X217981Y269283D01*
X216213Y271213D01*
X214284Y272981D01*
X212207Y274574D01*
X210000Y275981D01*
X207679Y277189D01*
X205261Y278191D01*
X202765Y278978D01*
X200210Y279544D01*
X197615Y279886D01*
X195000Y280000D01*
X155000Y280000D01*
X155000Y218128D01*
X154969Y217420D01*
X154877Y216717D01*
X154723Y216024D01*
X154510Y215348D01*
X154238Y214693D01*
X153911Y214064D01*
X153530Y213466D01*
X153098Y212903D01*
X152619Y212381D01*
X152097Y211902D01*
X151534Y211470D01*
X150936Y211089D01*
X150307Y210762D01*
X149652Y210490D01*
X148976Y210277D01*
X148283Y210123D01*
X147580Y210031D01*
X146872Y210000D01*
X-346872Y210000D01*
X-347580Y210031D01*
X-348283Y210123D01*
X-348976Y210277D01*
X-349652Y210490D01*
X-350307Y210762D01*
X-350936Y211089D01*
X-351534Y211470D01*
X-352097Y211902D01*
X-352619Y212381D01*
X-353098Y212903D01*
X-353530Y213466D01*
X-353911Y214064D01*
X-354238Y214693D01*
X-354510Y215348D01*
X-354723Y216024D01*
X-354877Y216717D01*
X-354969Y217420D01*
X-355000Y218128D01*
X-355000Y280000D01*
X-395000Y280000D01*
X-397615Y279886D01*
X-400209Y279544D01*
X-402765Y278978D01*
X-405261Y278191D01*
X-407679Y277189D01*
X-410000Y275981D01*
X-412207Y274575D01*
X-414284Y272981D01*
X-416213Y271213D01*
X-417981Y269284D01*
X-419575Y267207D01*
X-420981Y265000D01*
X-422189Y262679D01*
X-423191Y260261D01*
X-423978Y257765D01*
X-424544Y255209D01*
X-424886Y252615D01*
X-425000Y250000D01*
X-425000Y-250000D01*
X-374125Y244480D02*
X-374193Y243443D01*
X-374329Y242413D01*
X-374531Y241393D01*
X-374800Y240389D01*
X-375135Y239405D01*
X-375532Y238445D01*
X-375992Y237513D01*
X-376512Y236612D01*
X-377089Y235748D01*
X-377722Y234924D01*
X-378407Y234142D01*
X-379142Y233407D01*
X-379924Y232722D01*
X-380748Y232089D01*
X-381612Y231512D01*
X-382513Y230992D01*
X-383445Y230532D01*
X-384405Y230135D01*
X-385389Y229800D01*
X-386393Y229531D01*
X-387413Y229329D01*
X-388443Y229193D01*
X-389480Y229125D01*
X-390520Y229125D01*
X-391557Y229193D01*
X-392587Y229329D01*
X-393607Y229531D01*
X-394611Y229800D01*
X-395595Y230135D01*
X-396555Y230532D01*
X-397487Y230992D01*
X-398388Y231512D01*
X-399252Y232089D01*
X-400076Y232722D01*
X-400858Y233407D01*
X-401593Y234142D01*
X-402278Y234924D01*
X-402911Y235748D01*
X-403488Y236612D01*
X-404008Y237513D01*
X-404468Y238445D01*
X-404865Y239405D01*
X-405200Y240389D01*
X-405469Y241393D01*
X-405671Y242413D01*
X-405807Y243443D01*
X-405875Y244480D01*
X-405875Y245520D01*
X-405807Y246557D01*
X-405671Y247587D01*
X-405469Y248607D01*
X-405200Y249611D01*
X-404865Y250595D01*
X-404468Y251555D01*
X-404008Y252487D01*
X-403488Y253388D01*
X-402911Y254252D01*
X-402278Y255076D01*
X-401593Y255858D01*
X-400858Y256593D01*
X-400076Y257278D01*
X-399252Y257911D01*
X-398388Y258488D01*
X-397487Y259008D01*
X-396555Y259468D01*
X-395595Y259865D01*
X-394611Y260200D01*
X-393607Y260469D01*
X-392587Y260671D01*
X-391557Y260807D01*
X-390520Y260875D01*
X-389480Y260875D01*
X-388443Y260807D01*
X-387413Y260671D01*
X-386393Y260469D01*
X-385389Y260200D01*
X-384405Y259865D01*
X-383445Y259468D01*
X-382513Y259008D01*
X-381612Y258488D01*
X-380748Y257911D01*
X-379924Y257278D01*
X-379142Y256593D01*
X-378407Y255858D01*
X-377722Y255076D01*
X-377089Y254252D01*
X-376512Y253388D01*
X-375992Y252487D01*
X-375532Y251555D01*
X-375135Y250595D01*
X-374800Y249611D01*
X-374531Y248607D01*
X-374329Y247587D01*
X-374193Y246557D01*
X-374125Y245520D01*
X-374125Y244480D01*
X205875Y244480D02*
X205807Y243443D01*
X205671Y242413D01*
X205469Y241393D01*
X205200Y240389D01*
X204865Y239405D01*
X204468Y238445D01*
X204008Y237513D01*
X203488Y236612D01*
X202911Y235748D01*
X202278Y234924D01*
X201593Y234142D01*
X200858Y233407D01*
X200076Y232722D01*
X199252Y232089D01*
X198388Y231512D01*
X197487Y230992D01*
X196555Y230532D01*
X195595Y230135D01*
X194611Y229800D01*
X193607Y229531D01*
X192587Y229329D01*
X191557Y229193D01*
X190520Y229125D01*
X189480Y229125D01*
X188443Y229193D01*
X187413Y229329D01*
X186393Y229531D01*
X185389Y229800D01*
X184405Y230135D01*
X183445Y230532D01*
X182513Y230992D01*
X181612Y231512D01*
X180748Y232089D01*
X179924Y232722D01*
X179142Y233407D01*
X178407Y234142D01*
X177722Y234924D01*
X177089Y235748D01*
X176512Y236612D01*
X175992Y237513D01*
X175532Y238445D01*
X175135Y239405D01*
X174800Y240389D01*
X174531Y241393D01*
X174329Y242413D01*
X174193Y243443D01*
X174125Y244480D01*
X174125Y245520D01*
X174193Y246557D01*
X174329Y247587D01*
X174531Y248607D01*
X174800Y249611D01*
X175135Y250595D01*
X175532Y251555D01*
X175992Y252487D01*
X176512Y253388D01*
X177089Y254252D01*
X177722Y255076D01*
X178407Y255858D01*
X179142Y256593D01*
X179924Y257278D01*
X180748Y257911D01*
X181612Y258488D01*
X182513Y259008D01*
X183445Y259468D01*
X184405Y259865D01*
X185389Y260200D01*
X186393Y260469D01*
X187413Y260671D01*
X188443Y260807D01*
X189480Y260875D01*
X190520Y260875D01*
X191557Y260807D01*
X192587Y260671D01*
X193607Y260469D01*
X194611Y260200D01*
X195595Y259865D01*
X196555Y259468D01*
X197487Y259008D01*
X198388Y258488D01*
X199252Y257911D01*
X200076Y257278D01*
X200858Y256593D01*
X201593Y255858D01*
X202278Y255076D01*
X202911Y254252D01*
X203488Y253388D01*
X204008Y252487D01*
X204468Y251555D01*
X204865Y250595D01*
X205200Y249611D01*
X205469Y248607D01*
X205671Y247587D01*
X205807Y246557D01*
X205875Y245520D01*
X205875Y244480D01*
X205875Y-245520D02*
X205807Y-246557D01*
X205671Y-247587D01*
X205469Y-248607D01*
X205200Y-249611D01*
X204865Y-250595D01*
X204468Y-251555D01*
X204008Y-252487D01*
X203488Y-253388D01*
X202911Y-254252D01*
X202278Y-255076D01*
X201593Y-255858D01*
X200858Y-256593D01*
X200076Y-257278D01*
X199252Y-257911D01*
X198388Y-258488D01*
X197487Y-259008D01*
X196555Y-259468D01*
X195595Y-259865D01*
X194611Y-260200D01*
X193607Y-260469D01*
X192587Y-260671D01*
X191557Y-260807D01*
X190520Y-260875D01*
X189480Y-260875D01*
X188443Y-260807D01*
X187413Y-260671D01*
X186393Y-260469D01*
X185389Y-260200D01*
X184405Y-259865D01*
X183445Y-259468D01*
X182513Y-259008D01*
X181612Y-258488D01*
X180748Y-257911D01*
X179924Y-257278D01*
X179142Y-256593D01*
X178407Y-255858D01*
X177722Y-255076D01*
X177089Y-254252D01*
X176512Y-253388D01*
X175992Y-252487D01*
X175532Y-251555D01*
X175135Y-250595D01*
X174800Y-249611D01*
X174531Y-248607D01*
X174329Y-247587D01*
X174193Y-246557D01*
X174125Y-245520D01*
X174125Y-244480D01*
X174193Y-243443D01*
X174329Y-242413D01*
X174531Y-241393D01*
X174800Y-240389D01*
X175135Y-239405D01*
X175532Y-238445D01*
X175992Y-237513D01*
X176512Y-236612D01*
X177089Y-235748D01*
X177722Y-234924D01*
X178407Y-234142D01*
X179142Y-233407D01*
X179924Y-232722D01*
X180748Y-232089D01*
X181612Y-231512D01*
X182513Y-230992D01*
X183445Y-230532D01*
X184405Y-230135D01*
X185389Y-229800D01*
X186393Y-229531D01*
X187413Y-229329D01*
X188443Y-229193D01*
X189480Y-229125D01*
X190520Y-229125D01*
X191557Y-229193D01*
X192587Y-229329D01*
X193607Y-229531D01*
X194611Y-229800D01*
X195595Y-230135D01*
X196555Y-230532D01*
X197487Y-230992D01*
X198388Y-231512D01*
X199252Y-232089D01*
X200076Y-232722D01*
X200858Y-233407D01*
X201593Y-234142D01*
X202278Y-234924D01*
X202911Y-235748D01*
X203488Y-236612D01*
X204008Y-237513D01*
X204468Y-238445D01*
X204865Y-239405D01*
X205200Y-240389D01*
X205469Y-241393D01*
X205671Y-242413D01*
X205807Y-243443D01*
X205875Y-244480D01*
X205875Y-245520D01*
X-374125Y-245520D02*
X-374193Y-246557D01*
X-374329Y-247587D01*
X-374531Y-248607D01*
X-374800Y-249611D01*
X-375135Y-250595D01*
X-375532Y-251555D01*
X-375992Y-252487D01*
X-376512Y-253388D01*
X-377089Y-254252D01*
X-377722Y-255076D01*
X-378407Y-255858D01*
X-379142Y-256593D01*
X-379924Y-257278D01*
X-380748Y-257911D01*
X-381612Y-258488D01*
X-382513Y-259008D01*
X-383445Y-259468D01*
X-384405Y-259865D01*
X-385389Y-260200D01*
X-386393Y-260469D01*
X-387413Y-260671D01*
X-388443Y-260807D01*
X-389480Y-260875D01*
X-390520Y-260875D01*
X-391557Y-260807D01*
X-392587Y-260671D01*
X-393607Y-260469D01*
X-394611Y-260200D01*
X-395595Y-259865D01*
X-396555Y-259468D01*
X-397487Y-259008D01*
X-398388Y-258488D01*
X-399252Y-257911D01*
X-400076Y-257278D01*
X-400858Y-256593D01*
X-401593Y-255858D01*
X-402278Y-255076D01*
X-402911Y-254252D01*
X-403488Y-253388D01*
X-404008Y-252487D01*
X-404468Y-251555D01*
X-404865Y-250595D01*
X-405200Y-249611D01*
X-405469Y-248607D01*
X-405671Y-247587D01*
X-405807Y-246557D01*
X-405875Y-245520D01*
X-405875Y-244480D01*
X-405807Y-243443D01*
X-405671Y-242413D01*
X-405469Y-241393D01*
X-405200Y-240389D01*
X-404865Y-239405D01*
X-404468Y-238445D01*
X-404008Y-237513D01*
X-403488Y-236612D01*
X-402911Y-235748D01*
X-402278Y-234924D01*
X-401593Y-234142D01*
X-400858Y-233407D01*
X-400076Y-232722D01*
X-399252Y-232089D01*
X-398388Y-231512D01*
X-397487Y-230992D01*
X-396555Y-230532D01*
X-395595Y-230135D01*
X-394611Y-229800D01*
X-393607Y-229531D01*
X-392587Y-229329D01*
X-391557Y-229193D01*
X-390520Y-229125D01*
X-389480Y-229125D01*
X-388443Y-229193D01*
X-387413Y-229329D01*
X-386393Y-229531D01*
X-385389Y-229800D01*
X-384405Y-230135D01*
X-383445Y-230532D01*
X-382513Y-230992D01*
X-381612Y-231512D01*
X-380748Y-232089D01*
X-379924Y-232722D01*
X-379142Y-233407D01*
X-378407Y-234142D01*
X-377722Y-234924D01*
X-377089Y-235748D01*
X-376512Y-236612D01*
X-375992Y-237513D01*
X-375532Y-238445D01*
X-375135Y-239405D01*
X-374800Y-240389D01*
X-374531Y-241393D01*
X-374329Y-242413D01*
X-374193Y-243443D01*
X-374125Y-244480D01*
X-374125Y-245520D01*
M02*
