M48
;GenerationSoftware,Autodesk,EAGLE,9.6.1*%
;CreationDate,2022-04-07T11:53:07Z*%
FMAT,2
ICI,OFF
METRIC,TZ,000.000
T4C0.700
T3C0.900
T2C1.400
T1C3.175
%
G90
M71
T1
X-39000Y24500
X19000Y24500
X19000Y-24500
X-39000Y-24500
T2
X23495Y-3810
X-13335Y25400
X-15875Y25400
X-13335Y10160
X-8255Y10160
X4445Y10160
X9525Y10160
X12065Y10160
X3302Y13081
X762Y13081
X-10795Y25400
X-8255Y25400
X-15875Y10160
X-10795Y10160
X4445Y25400
X6985Y25400
X20955Y-3810
X23495Y17780
X26035Y-3810
X28575Y-3810
X28575Y3810
X26035Y3810
X23495Y3810
X20955Y3810
X20955Y-17780
X23495Y-17780
X26035Y-17780
X28575Y-17780
X28575Y-10160
X26035Y-10160
X23495Y-10160
X20955Y-10160
X20955Y10160
X23495Y10160
X26035Y10160
X28575Y10160
X28575Y17780
X26035Y17780
X6985Y10160
X20955Y17780
X-20955Y3810
X-23495Y3810
X-26035Y3810
X-28575Y3810
X-28575Y-3810
X-26035Y-3810
X-23495Y-3810
X-20955Y-3810
X-20955Y-10160
X-23495Y-10160
X-26035Y-10160
X-28575Y-10160
X-28575Y-17780
X-26035Y-17780
X-23495Y-17780
X-20955Y-17780
X-20955Y17780
X-23495Y17780
X-26035Y17780
X-28575Y17780
X-28575Y10160
X-26035Y10160
X-23495Y10160
X-20955Y10160
X12065Y7620
X9525Y7620
X-635Y7620
X-3175Y7620
X-13335Y7620
X-15875Y7620
X-13335Y-7620
X-8255Y-7620
X4445Y-7620
X9525Y-7620
X12065Y-7620
X3302Y-4699
X762Y-4699
X-10795Y7620
X-8255Y7620
X-15875Y-7620
X-10795Y-7620
X4445Y7620
X6985Y7620
X6985Y-7620
X12065Y-10160
X9525Y-10160
X-635Y-10160
X-3175Y-10160
X-13335Y-10160
X-15875Y-10160
X-13335Y-25400
X-8255Y-25400
X4445Y-25400
X9525Y-25400
X12065Y-25400
X3302Y-22479
X762Y-22479
X-10795Y-10160
X-8255Y-10160
X-15875Y-25400
X-10795Y-25400
X4445Y-10160
X6985Y-10160
X6985Y-25400
X12065Y25400
X9525Y25400
X-635Y25400
X-3175Y25400
T3
X-24765Y-24130
X-22225Y-24130
T4
X-6350Y0
X-1270Y0
X-6350Y-17780
X-1270Y-17780
X31750Y3429
X31750Y-10414
X31750Y17780
X31750Y4699
X-31750Y-17780
X-31750Y-5080
X-31750Y10160
X-31750Y-3810
X31750Y-9144
X-31750Y-19050
X-6350Y17780
X-26150Y24765
X-24650Y24765
X-27650Y24765
X-23150Y24765
X36195Y-750
X36195Y750
X36195Y2250
X36195Y-3750
X36195Y3750
X36195Y-14720
X36195Y-13220
X36195Y-16220
X36195Y-2250
X36195Y-17720
X36195Y-10220
X36195Y13220
X36195Y14720
X36195Y11720
X36195Y16220
X36195Y-11720
X36195Y17720
X-36195Y14720
X-36195Y13220
X-36195Y16220
X-36195Y11720
X-36195Y17720
X-36195Y10220
X-36195Y-13220
X-36195Y-14720
X-36195Y-11720
X-36195Y-16220
X-36195Y-10220
X-36195Y-17720
X-36195Y750
X-36195Y-750
X-36195Y2250
X-36195Y-2250
X-36195Y3750
X-36195Y-3750
X-1270Y17780
X36195Y10220
M30