M48
;GenerationSoftware,Autodesk,EAGLE,9.6.1*%
;CreationDate,2022-03-31T06:22:01Z*%
FMAT,2
ICI,OFF
METRIC,TZ,000.000
T7C0.700
T6C0.813
T5C0.900
T4C1.016
T3C1.400
T2C1.575
T1C3.175
%
G90
M71
T1
X-39000Y24500
X19000Y24500
X19000Y-24500
X-39000Y-24500
T2
X-5715Y5080
X9525Y5080
X35560Y12700
X20320Y12700
T3
X-29210Y-7620
X-13970Y-15240
X-13970Y-10160
X-29210Y5080
X-29210Y7620
X-13970Y7620
X-29210Y-5080
X-29210Y2540
X-16891Y1397
X-29210Y12700
X-29210Y10160
X-29210Y0
X-29210Y-2540
X-29210Y-12700
X-29210Y-15240
X-13970Y-12700
X-13970Y-7620
X-13970Y5080
X-13970Y10160
X-13970Y12700
X-16891Y3937
X-29210Y-10160
T4
X1905Y5080
X-1905Y5080
X27940Y12700
X-5715Y-8560
X1905Y-8560
X9525Y-8560
X24130Y12700
X20320Y-15240
X27940Y-15240
X35560Y-15240
T5
X-24765Y-24130
X-24765Y24130
X-22225Y24130
X-22225Y-24130
T6
X-2540Y-20320
X-2540Y-15240
X8890Y-20320
X8890Y-15240
X17145Y18415
X22225Y18415
X3175Y13970
X8255Y13970
X5715Y21590
X10795Y21590
X-5715Y11430
X-5715Y16510
X35560Y18415
X27940Y18415
X9525Y10160
X1905Y10160
T7
X-36830Y750
X-36830Y-2250
X-36830Y2250
X-36830Y-3750
X-36830Y3750
X-36830Y10680
X-36830Y-12180
X-36830Y12180
X-36830Y9180
X-36830Y13680
X-36830Y-10680
X-36830Y-13680
X-36830Y-9180
X-36830Y-15180
X-36830Y-7680
X-36830Y-750
M30