M48
;GenerationSoftware,Autodesk,EAGLE,9.6.1*%
;CreationDate,2022-04-04T08:21:26Z*%
FMAT,2
ICI,OFF
METRIC,TZ,000.000
T5C0.500
T4C0.700
T3C0.900
T2C1.000
T1C3.175
%
G90
M71
T1
X-39000Y24500
X19000Y24500
X19000Y-24500
X-39000Y-24500
T2
X-16510Y3175
X-21590Y3175
T3
X-27940Y17145
X-31750Y6985
X-31750Y15240
X-31750Y-1270
X-31750Y-9525
X-31750Y-17780
X-25400Y14605
X-34290Y6985
X-34290Y15240
X-34290Y-1270
X-34290Y-9525
X-34290Y-17780
X-22860Y14605
X-17780Y14605
X-27940Y14605
X-20320Y17145
X-17780Y17145
X-19050Y3175
X-24130Y3175
T4
X-36830Y7505
X-36830Y9005
X-36830Y6005
X-36830Y10505
X-36830Y-750
X-36830Y750
X-36830Y-2250
X-36830Y2250
X-36830Y-9005
X-36830Y-7505
X-36830Y-10505
X-36830Y-6005
X-36830Y-17260
X-36830Y-15760
X-36830Y-18760
X-36830Y-14260
X-36830Y15760
X-36830Y17260
X-36830Y14260
X-36830Y18760
T5
X8890Y-2540
X8890Y-1270
X8890Y0
X-3810Y8890
X-3810Y-8890
X-1270Y-8890
X0Y-8890
X-2540Y8890
X-1270Y8890
X0Y8890
X-8890Y-3810
M30